<svg xmlns="http://www.w3.org/2000/svg" version="1.1" xmlns:xlink="http://www.w3.org/1999/xlink" xmlns:svgjs="http://svgjs.dev/svgjs" width="1500" height="1500" viewBox="0 0 1500 1500"><rect width="1500" height="1500" fill="#ffffff"></rect><g transform="matrix(0.6666666666666666,0,0,0.6666666666666666,249.39393939393938,530.9002776746211)"><svg viewBox="0 0 396 174" data-background-color="#ffffff" preserveAspectRatio="xMidYMid meet" height="659" width="1500" xmlns="http://www.w3.org/2000/svg" xmlns:xlink="http://www.w3.org/1999/xlink"><g id="tight-bounds" transform="matrix(1,0,0,1,0.2400000000000091,-0.2245409303127559)"><svg viewBox="0 0 395.52 174.4490818606255" height="174.4490818606255" width="395.52"><g><svg viewBox="0 0 395.52 174.4490818606255" height="174.4490818606255" width="395.52"><g transform="matrix(1,0,0,1,0,105.2911356039577)"><svg viewBox="0 0 395.52 69.15794625666781" height="69.15794625666781" width="395.52"><g id="textblocktransform"><svg viewBox="0 0 395.52 69.15794625666781" height="69.15794625666781" width="395.52" id="textblock"><g><svg viewBox="0 0 395.52 41.151382932796096" height="41.151382932796096" width="395.52"><g transform="matrix(1,0,0,1,0,0)"><svg width="395.52" viewBox="1.9 -35.7 347.42 36.150000000000006" height="41.151382932796096" data-palette-color="#729343"><path d="M15.95 0.45Q12 0.45 8.15-0.6 4.3-1.65 1.9-3.4L1.9-3.4 4.75-9.9Q7.3-8.3 10.2-7.45 13.1-6.6 16.05-6.6L16.05-6.6Q19.05-6.6 20.63-7.43 22.2-8.25 22.2-9.75L22.2-9.75Q22.2-11.1 20.78-11.95 19.35-12.8 15.35-13.65L15.35-13.65Q10.4-14.7 7.6-16.15 4.8-17.6 3.68-19.55 2.55-21.5 2.55-24.35L2.55-24.35Q2.55-27.6 4.38-30.18 6.2-32.75 9.53-34.23 12.85-35.7 17.15-35.7L17.15-35.7Q20.95-35.7 24.53-34.63 28.1-33.55 30.1-31.85L30.1-31.85 27.3-25.35Q22.5-28.65 17.2-28.65L17.2-28.65Q14.65-28.65 13.1-27.68 11.55-26.7 11.55-25.1L11.55-25.1Q11.55-24.15 12.1-23.55 12.65-22.95 14.15-22.38 15.65-21.8 18.6-21.2L18.6-21.2Q23.4-20.15 26.15-18.68 28.9-17.2 30.05-15.25 31.2-13.3 31.2-10.6L31.2-10.6Q31.2-5.4 27.2-2.48 23.2 0.45 15.95 0.45L15.95 0.45ZM67.2-25.2Q71.5-25.2 73.57-22.6 75.65-20 75.65-14.6L75.65-14.6 75.65 0 66.75 0 66.75-14.35Q66.75-16.5 66.1-17.45 65.45-18.4 63.95-18.4L63.95-18.4Q62.1-18.4 61.12-17.1 60.15-15.8 60.15-13.4L60.15-13.4 60.15 0 51.25 0 51.25-14.35Q51.25-16.5 50.6-17.45 49.95-18.4 48.45-18.4L48.45-18.4Q46.6-18.4 45.65-17.1 44.7-15.8 44.7-13.4L44.7-13.4 44.7 0 35.8 0 35.8-24.6 44.45-24.6 44.45-21.5Q46.9-25.2 51.95-25.2L51.95-25.2Q57.25-25.2 59.1-20.85L59.1-20.85Q60.4-22.9 62.52-24.05 64.65-25.2 67.2-25.2L67.2-25.2ZM91.9-25.2Q97.7-25.2 100.47-22.53 103.25-19.85 103.25-14.2L103.25-14.2 103.25 0 94.9 0 94.9-3.45Q94.2-1.65 92.55-0.63 90.9 0.4 88.6 0.4L88.6 0.4Q86.05 0.4 84-0.63 81.95-1.65 80.77-3.48 79.6-5.3 79.6-7.6L79.6-7.6Q79.6-10.25 80.97-11.83 82.35-13.4 85.35-14.1 88.35-14.8 93.45-14.8L93.45-14.8 94.8-14.8 94.8-15.4Q94.8-17.25 93.95-17.98 93.1-18.7 90.95-18.7L90.95-18.7Q89.25-18.7 87.02-18.03 84.8-17.35 82.85-16.3L82.85-16.3 80.6-22.15Q82.75-23.45 85.97-24.33 89.2-25.2 91.9-25.2L91.9-25.2ZM90.7-5.55Q92.5-5.55 93.65-6.83 94.8-8.1 94.8-10.1L94.8-10.1 94.8-10.7 94-10.7Q90.8-10.7 89.45-10.13 88.1-9.55 88.1-8.2L88.1-8.2Q88.1-7.05 88.82-6.3 89.55-5.55 90.7-5.55L90.7-5.55ZM126.69-25.3L127.19-17.95 122.34-17.45Q119.44-17.15 118.29-15.9 117.14-14.65 117.14-12.35L117.14-12.35 117.14 0 108.24 0 108.24-24.6 116.69-24.6 116.69-20.35Q117.54-22.6 119.49-23.78 121.44-24.95 124.24-25.1L124.24-25.1 126.69-25.3ZM146.54-6Q147.64-6 148.99-6.15L148.99-6.15 148.54 0.2Q146.94 0.4 145.44 0.4L145.44 0.4Q139.44 0.4 136.72-2.13 133.99-4.65 133.99-9.95L133.99-9.95 133.99-18.05 129.39-18.05 129.39-24.6 133.99-24.6 133.99-31.75 142.89-31.75 142.89-24.6 148.79-24.6 148.79-18.05 142.89-18.05 142.89-9.9Q142.89-6 146.54-6L146.54-6ZM184.94-15.2L195.49-35.25 202.59-35.25 202.59 0 194.59 0 194.59-18.5 187.79-5.85 181.89-5.85 175.14-18.2 175.09 0 167.09 0 167.09-35.25 174.34-35.25 184.94-15.2ZM219.73-25.2Q225.53-25.2 228.31-22.53 231.08-19.85 231.08-14.2L231.08-14.2 231.08 0 222.73 0 222.73-3.45Q222.03-1.65 220.38-0.63 218.73 0.4 216.43 0.4L216.43 0.4Q213.88 0.4 211.83-0.63 209.78-1.65 208.61-3.48 207.43-5.3 207.43-7.6L207.43-7.6Q207.43-10.25 208.81-11.83 210.18-13.4 213.18-14.1 216.18-14.8 221.28-14.8L221.28-14.8 222.63-14.8 222.63-15.4Q222.63-17.25 221.78-17.98 220.93-18.7 218.78-18.7L218.78-18.7Q217.08-18.7 214.86-18.03 212.63-17.35 210.68-16.3L210.68-16.3 208.43-22.15Q210.58-23.45 213.81-24.33 217.03-25.2 219.73-25.2L219.73-25.2ZM218.53-5.55Q220.33-5.55 221.48-6.83 222.63-8.1 222.63-10.1L222.63-10.1 222.63-10.7 221.83-10.7Q218.63-10.7 217.28-10.13 215.93-9.55 215.93-8.2L215.93-8.2Q215.93-7.05 216.66-6.3 217.38-5.55 218.53-5.55L218.53-5.55ZM247.18-10.7L252.88-24.55 261.58-24.55 250.63 0 243.28 0 232.48-24.55 241.78-24.55 247.18-10.7ZM279.03-24.6L287.93-24.6 287.93 0 279.28 0 279.28-3.3Q278.13-1.5 276.35-0.55 274.58 0.4 272.28 0.4L272.28 0.4Q267.53 0.4 265.23-2.23 262.93-4.85 262.93-10.2L262.93-10.2 262.93-24.6 271.83-24.6 271.83-10Q271.83-6.4 274.93-6.4L274.93-6.4Q276.73-6.4 277.88-7.7 279.03-9 279.03-11.1L279.03-11.1 279.03-24.6ZM309.68-25.2Q314.08-25.2 316.23-22.58 318.38-19.95 318.38-14.6L318.38-14.6 318.38 0 309.48 0 309.48-14.2Q309.48-16.4 308.7-17.4 307.93-18.4 306.38-18.4L306.38-18.4Q304.38-18.4 303.2-17.13 302.03-15.85 302.03-13.7L302.03-13.7 302.03 0 293.13 0 293.13-24.6 301.78-24.6 301.78-21.3Q303.08-23.2 305.13-24.2 307.18-25.2 309.68-25.2L309.68-25.2ZM335.77 0.4Q331.72 0.4 328.65-1.18 325.57-2.75 323.9-5.65 322.22-8.55 322.22-12.45L322.22-12.45Q322.22-16.35 323.9-19.23 325.57-22.1 328.62-23.65 331.67-25.2 335.77-25.2L335.77-25.2Q339.87-25.2 342.92-23.65 345.97-22.1 347.65-19.23 349.32-16.35 349.32-12.45L349.32-12.45Q349.32-8.55 347.65-5.65 345.97-2.75 342.92-1.18 339.87 0.4 335.77 0.4L335.77 0.4ZM335.77-6.25Q340.52-6.25 340.52-12.45L340.52-12.45Q340.52-18.65 335.77-18.65L335.77-18.65Q331.02-18.65 331.02-12.45L331.02-12.45Q331.02-6.25 335.77-6.25L335.77-6.25Z" opacity="1" transform="matrix(1,0,0,1,0,0)" fill="#000000" class="wordmark-text-0" data-fill-palette-color="primary" id="text-0"></path></svg></g></svg></g><g transform="matrix(1,0,0,1,90.96959999999999,50.86623681003887)"><svg viewBox="0 0 213.5808 18.291709446628946" height="18.291709446628946" width="213.5808"><g transform="matrix(1,0,0,1,0,0)"><svg width="213.5808" viewBox="3.2 -35.25 521.3 44.65" height="18.291709446628946" data-palette-color="#729343"><path d="M28.25 0L3.2 0 3.2-35.25 28.25-35.25 28.25-28.15 12.15-28.15 12.15-21.45 27.25-21.45 27.25-14.4 12.15-14.4 12.15-7.1 28.25-7.1 28.25 0ZM43.7-25.2Q49.5-25.2 52.27-22.53 55.05-19.85 55.05-14.2L55.05-14.2 55.05 0 46.7 0 46.7-3.45Q46-1.65 44.35-0.63 42.7 0.4 40.4 0.4L40.4 0.4Q37.85 0.4 35.8-0.63 33.75-1.65 32.57-3.48 31.4-5.3 31.4-7.6L31.4-7.6Q31.4-10.25 32.77-11.83 34.15-13.4 37.15-14.1 40.15-14.8 45.25-14.8L45.25-14.8 46.6-14.8 46.6-15.4Q46.6-17.25 45.75-17.98 44.9-18.7 42.75-18.7L42.75-18.7Q41.05-18.7 38.82-18.03 36.6-17.35 34.65-16.3L34.65-16.3 32.4-22.15Q34.55-23.45 37.77-24.33 41-25.2 43.7-25.2L43.7-25.2ZM42.5-5.55Q44.3-5.55 45.45-6.83 46.6-8.1 46.6-10.1L46.6-10.1 46.6-10.7 45.8-10.7Q42.6-10.7 41.25-10.13 39.9-9.55 39.9-8.2L39.9-8.2Q39.9-7.05 40.62-6.3 41.35-5.55 42.5-5.55L42.5-5.55ZM74.75-6Q75.85-6 77.2-6.15L77.2-6.15 76.75 0.2Q75.15 0.4 73.65 0.4L73.65 0.4Q67.65 0.4 64.92-2.13 62.2-4.65 62.2-9.95L62.2-9.95 62.2-18.05 57.6-18.05 57.6-24.6 62.2-24.6 62.2-31.75 71.1-31.75 71.1-24.6 77-24.6 77-18.05 71.1-18.05 71.1-9.9Q71.1-6 74.75-6L74.75-6ZM104.49 0.4Q100.94 0.4 97.94-0.35 94.94-1.1 92.89-2.55L92.89-2.55 95.14-8.6Q97.14-7.3 99.69-6.53 102.24-5.75 104.59-5.75L104.59-5.75Q106.04-5.75 106.84-6.18 107.64-6.6 107.64-7.35L107.64-7.35Q107.64-8 107.07-8.35 106.49-8.7 104.74-9.1L104.74-9.1 100.79-10Q97.04-10.85 95.39-12.5 93.74-14.15 93.74-17.2L93.74-17.2Q93.74-19.55 95.14-21.38 96.54-23.2 99.07-24.2 101.59-25.2 104.79-25.2L104.79-25.2Q107.44-25.2 110.07-24.43 112.69-23.65 114.84-22.25L114.84-22.25 112.54-16.45Q110.54-17.7 108.52-18.38 106.49-19.05 104.69-19.05L104.69-19.05Q103.24-19.05 102.44-18.6 101.64-18.15 101.64-17.3L101.64-17.3Q101.64-16.8 102.14-16.48 102.64-16.15 103.89-15.85L103.89-15.85 108.04-14.9Q111.94-14.05 113.69-12.28 115.44-10.5 115.44-7.45L115.44-7.45Q115.44-3.8 112.52-1.7 109.59 0.4 104.49 0.4L104.49 0.4ZM150.49-25.2Q154.79-25.2 156.86-22.6 158.94-20 158.94-14.6L158.94-14.6 158.94 0 150.04 0 150.04-14.35Q150.04-16.5 149.39-17.45 148.74-18.4 147.24-18.4L147.24-18.4Q145.39-18.4 144.41-17.1 143.44-15.8 143.44-13.4L143.44-13.4 143.44 0 134.54 0 134.54-14.35Q134.54-16.5 133.89-17.45 133.24-18.4 131.74-18.4L131.74-18.4Q129.89-18.4 128.94-17.1 127.99-15.8 127.99-13.4L127.99-13.4 127.99 0 119.09 0 119.09-24.6 127.74-24.6 127.74-21.5Q130.19-25.2 135.24-25.2L135.24-25.2Q140.54-25.2 142.39-20.85L142.39-20.85Q143.69-22.9 145.81-24.05 147.94-25.2 150.49-25.2L150.49-25.2ZM175.19-25.2Q180.99-25.2 183.76-22.53 186.54-19.85 186.54-14.2L186.54-14.2 186.54 0 178.19 0 178.19-3.45Q177.49-1.65 175.84-0.63 174.19 0.4 171.89 0.4L171.89 0.4Q169.34 0.4 167.28-0.63 165.24-1.65 164.06-3.48 162.89-5.3 162.89-7.6L162.89-7.6Q162.89-10.25 164.26-11.83 165.64-13.4 168.64-14.1 171.64-14.8 176.74-14.8L176.74-14.8 178.09-14.8 178.09-15.4Q178.09-17.25 177.24-17.98 176.39-18.7 174.24-18.7L174.24-18.7Q172.53-18.7 170.31-18.03 168.09-17.35 166.14-16.3L166.14-16.3 163.89-22.15Q166.03-23.45 169.26-24.33 172.49-25.2 175.19-25.2L175.19-25.2ZM173.99-5.55Q175.78-5.55 176.94-6.83 178.09-8.1 178.09-10.1L178.09-10.1 178.09-10.7 177.28-10.7Q174.09-10.7 172.74-10.13 171.39-9.55 171.39-8.2L171.39-8.2Q171.39-7.05 172.11-6.3 172.84-5.55 173.99-5.55L173.99-5.55ZM209.98-25.3L210.48-17.95 205.63-17.45Q202.73-17.15 201.58-15.9 200.43-14.65 200.43-12.35L200.43-12.35 200.43 0 191.53 0 191.53-24.6 199.98-24.6 199.98-20.35Q200.83-22.6 202.78-23.78 204.73-24.95 207.53-25.1L207.53-25.1 209.98-25.3ZM229.83-6Q230.93-6 232.28-6.15L232.28-6.15 231.83 0.2Q230.23 0.4 228.73 0.4L228.73 0.4Q222.73 0.4 220-2.13 217.28-4.65 217.28-9.95L217.28-9.95 217.28-18.05 212.68-18.05 212.68-24.6 217.28-24.6 217.28-31.75 226.18-31.75 226.18-24.6 232.08-24.6 232.08-18.05 226.18-18.05 226.18-9.9Q226.18-6 229.83-6L229.83-6ZM249.23-9.1L258.48-9.1 258.48-3.35Q258.48-0.15 257.33 2.45 256.18 5.05 253.43 7.75L253.43 7.75 250.08 5.1Q252.78 2.4 253.43 0L253.43 0 249.23 0 249.23-9.1ZM287.22 0L278.17 0 278.17-35.25 302.72-35.25 302.72-28.05 287.22-28.05 287.22-21.55 301.72-21.55 301.72-14.35 287.22-14.35 287.22 0ZM328.67-12.6L328.67-10.6 313.47-10.6Q313.87-8.2 315.22-7.15 316.57-6.1 319.07-6.1L319.07-6.1Q320.87-6.1 322.72-6.7 324.57-7.3 326.02-8.35L326.02-8.35 328.27-2.5Q326.42-1.15 323.82-0.38 321.22 0.4 318.62 0.4L318.62 0.4Q314.37 0.4 311.27-1.15 308.17-2.7 306.49-5.6 304.82-8.5 304.82-12.4L304.82-12.4Q304.82-16.1 306.39-19.03 307.97-21.95 310.79-23.58 313.62-25.2 317.17-25.2L317.17-25.2Q322.47-25.2 325.57-21.83 328.67-18.45 328.67-12.6L328.67-12.6ZM317.42-19.2Q313.87-19.2 313.37-14.8L313.37-14.8 321.22-14.8Q320.92-19.2 317.42-19.2L317.42-19.2ZM355.42-12.6L355.42-10.6 340.22-10.6Q340.62-8.2 341.97-7.15 343.31-6.1 345.81-6.1L345.81-6.1Q347.62-6.1 349.47-6.7 351.31-7.3 352.76-8.35L352.76-8.35 355.01-2.5Q353.17-1.15 350.56-0.38 347.97 0.4 345.37 0.4L345.37 0.4Q341.12 0.4 338.01-1.15 334.92-2.7 333.24-5.6 331.56-8.5 331.56-12.4L331.56-12.4Q331.56-16.1 333.14-19.03 334.72-21.95 337.54-23.58 340.37-25.2 343.92-25.2L343.92-25.2Q349.22-25.2 352.31-21.83 355.42-18.45 355.42-12.6L355.42-12.6ZM344.17-19.2Q340.62-19.2 340.12-14.8L340.12-14.8 347.97-14.8Q347.67-19.2 344.17-19.2L344.17-19.2ZM368.36 0L359.46 0 359.46-35.25 368.36-35.25 368.36 0ZM405.31-24.6L414.06-24.6 414.06-3Q414.06 3.1 410.43 6.25 406.81 9.4 399.71 9.4L399.71 9.4Q396.36 9.4 393.21 8.63 390.06 7.85 387.76 6.45L387.76 6.45 390.01 0.4Q392.31 1.6 394.78 2.25 397.26 2.9 399.46 2.9L399.46 2.9Q402.41 2.9 403.83 1.63 405.26 0.35 405.26-2.4L405.26-2.4 405.26-4.3Q404.16-2.65 402.11-1.68 400.06-0.7 397.66-0.7L397.66-0.7Q394.46-0.7 391.96-2.2 389.46-3.7 388.06-6.48 386.66-9.25 386.66-12.9L386.66-12.9Q386.66-16.55 388.06-19.35 389.46-22.15 391.96-23.68 394.46-25.2 397.66-25.2L397.66-25.2Q400.11-25.2 402.16-24.2 404.21-23.2 405.31-21.45L405.31-21.45 405.31-24.6ZM400.36-7.35Q402.71-7.35 404.01-8.83 405.31-10.3 405.31-12.9L405.31-12.9Q405.31-15.55 404.01-17.05 402.71-18.55 400.36-18.55L400.36-18.55Q398.06-18.55 396.76-17.07 395.46-15.6 395.46-12.9L395.46-12.9Q395.46-10.3 396.78-8.83 398.11-7.35 400.36-7.35L400.36-7.35ZM437.71-25.3L438.21-17.95 433.36-17.45Q430.46-17.15 429.31-15.9 428.16-14.65 428.16-12.35L428.16-12.35 428.16 0 419.26 0 419.26-24.6 427.71-24.6 427.71-20.35Q428.56-22.6 430.51-23.78 432.46-24.95 435.26-25.1L435.26-25.1 437.71-25.3ZM462.4-12.6L462.4-10.6 447.2-10.6Q447.6-8.2 448.95-7.15 450.3-6.1 452.8-6.1L452.8-6.1Q454.6-6.1 456.45-6.7 458.3-7.3 459.75-8.35L459.75-8.35 462-2.5Q460.15-1.15 457.55-0.38 454.95 0.4 452.35 0.4L452.35 0.4Q448.1 0.4 445-1.15 441.9-2.7 440.23-5.6 438.55-8.5 438.55-12.4L438.55-12.4Q438.55-16.1 440.13-19.03 441.7-21.95 444.53-23.58 447.35-25.2 450.9-25.2L450.9-25.2Q456.2-25.2 459.3-21.83 462.4-18.45 462.4-12.6L462.4-12.6ZM451.15-19.2Q447.6-19.2 447.1-14.8L447.1-14.8 454.95-14.8Q454.65-19.2 451.15-19.2L451.15-19.2ZM477.7-25.2Q483.5-25.2 486.28-22.53 489.05-19.85 489.05-14.2L489.05-14.2 489.05 0 480.7 0 480.7-3.45Q480-1.65 478.35-0.63 476.7 0.4 474.4 0.4L474.4 0.4Q471.85 0.4 469.8-0.63 467.75-1.65 466.58-3.48 465.4-5.3 465.4-7.6L465.4-7.6Q465.4-10.25 466.78-11.83 468.15-13.4 471.15-14.1 474.15-14.8 479.25-14.8L479.25-14.8 480.6-14.8 480.6-15.4Q480.6-17.25 479.75-17.98 478.9-18.7 476.75-18.7L476.75-18.7Q475.05-18.7 472.83-18.03 470.6-17.35 468.65-16.3L468.65-16.3 466.4-22.15Q468.55-23.45 471.78-24.33 475-25.2 477.7-25.2L477.7-25.2ZM476.5-5.55Q478.3-5.55 479.45-6.83 480.6-8.1 480.6-10.1L480.6-10.1 480.6-10.7 479.8-10.7Q476.6-10.7 475.25-10.13 473.9-9.55 473.9-8.2L473.9-8.2Q473.9-7.05 474.63-6.3 475.35-5.55 476.5-5.55L476.5-5.55ZM508.75-6Q509.85-6 511.2-6.15L511.2-6.15 510.75 0.2Q509.15 0.4 507.65 0.4L507.65 0.4Q501.65 0.4 498.92-2.13 496.2-4.65 496.2-9.95L496.2-9.95 496.2-18.05 491.6-18.05 491.6-24.6 496.2-24.6 496.2-31.75 505.1-31.75 505.1-24.6 511-24.6 511-18.05 505.1-18.05 505.1-9.9Q505.1-6 508.75-6L508.75-6ZM515.25 0L515.25-9.1 524.5-9.1 524.5 0 515.25 0Z" opacity="1" transform="matrix(1,0,0,1,0,0)" fill="#000000" class="slogan-text-1" data-fill-palette-color="secondary" id="text-1"></path></svg></g></svg></g></svg></g></svg></g><g transform="matrix(1,0,0,1,149.97185913664254,0)"><svg viewBox="0 0 95.57628172671494 95.57628172671492" height="95.57628172671492" width="95.57628172671494"><g><svg></svg></g><g id="icon-0"><svg viewBox="0 0 95.57628172671494 95.57628172671492" height="95.57628172671492" width="95.57628172671494"><g><path transform="scale(0.95576,0.95576)" d="M30 100c-16.569 0-30-13.431-30-30v-40c0-16.569 13.431-30 30-30h40c16.569 0 30 13.431 30 30v40c0 16.569-13.431 30-30 30z" fill="#000000" fill-rule="nonzero" stroke="none" stroke-width="1" stroke-linecap="butt" stroke-linejoin="miter" stroke-miterlimit="10" stroke-dasharray="" stroke-dashoffset="0" font-family="none" font-weight="none" font-size="none" text-anchor="none" style="mix-blend-mode: normal" data-fill-palette-color="accent"></path></g><g transform="matrix(1,0,0,1,20.457388263502725,19.115256345342985)"><svg viewBox="0 0 54.66150519970949 57.345769036028955" height="57.345769036028955" width="54.66150519970949"><g><svg xmlns="http://www.w3.org/2000/svg" xmlns:xlink="http://www.w3.org/1999/xlink" version="1.0" x="0" y="0" viewBox="10.110607099999996 8.151767649604249 79.77876835146161 83.69646622695068" enable-background="new 0 0 100 100" xml:space="preserve" height="57.345769036028955" width="54.66150519970949" class="icon-cg-0" data-fill-palette-color="quaternary" id="cg-0"><path d="M22.714 38.029c-0.555 2.143-3.476 1.477-6.585 6.54-5.719 9.316 1.255 21.242 12.692 21.242 3.476 0 6.673-1.155 9.194-3.087 2.043-1.577 3.653-3.675 4.586-6.085-6.951-17.744-12.103-8.572-12.115-8.539-1.321 2.265-4.775 0.255-3.453-1.999 0.022-0.044 7.384-13.047 16.034 2.11L42.967 28.935c-0.011-2.621 3.975-2.643 3.986-0.022l0.1 20.786c10.915-17.278 22.441-8.161 22.475-8.139 2.076 1.588-0.344 4.752-2.432 3.153-0.033-0.022-9.849-7.817-19.376 12.037 5.263 12.681 22.385 16.034 32.401 6.374 11.992-11.537 3.897-30.425-11.071-32.168-0.855-0.067-1.588-0.688-1.776-1.566-3.642-16.745-25.472-23.096-38.209-10.826C20.215 27.092 22.947 36.974 22.714 38.029zM18.605 36.552C16.395 13.245 43.811-0.169 61.833 13.878c4.319 3.364 7.528 8.017 9.016 13.336 18.433 3.609 25.539 25.783 12.037 38.786-10.227 9.849-27.06 8.683-35.766-2.432l0.133 26.305c0.011 2.621-3.964 2.643-3.975 0.011l-0.133-26.538c-11.215 12.903-33.034 5.174-33.034-11.626C10.111 45.469 13.42 39.828 18.605 36.552z" fill="#ffffff" data-fill-palette-color="quaternary"></path></svg></g></svg></g></svg></g></svg></g><g></g></svg></g><defs></defs></svg><rect width="395.52" height="174.4490818606255" fill="none" stroke="none" visibility="hidden"></rect></g></svg></g></svg>